<svg width="100%" height="100%" viewBox="0 0 100 100" version="1.1" xmlns="http://www.w3.org/2000/svg" xmlns:xlink="http://www.w3.org/1999/xlink" xml:space="preserve" xmlns:serif="http://www.serif.com/" style="fill-rule:evenodd;clip-rule:evenodd;stroke-linejoin:round;stroke-miterlimit:2;">
    <mask id="myMask">
		<rect id="mask" x="0" y="0" width="100" height="100" fill="white" />
	</mask>
	<g transform="matrix(1.56421,0,0,1.56421,-0.0197474,-0.0242611)" id="logo">
        <path d="M32,0.043C31.934,0.043 31.868,0.045 31.803,0.05L31.782,0.051L31.756,0.054L31.691,0.059L31.577,0.073L31.564,0.075L31.56,0.075C31.491,0.085 31.423,0.098 31.356,0.113L31.348,0.114L31.335,0.117L31.244,0.138L31.144,0.167L31.135,0.169L31.131,0.17C31.063,0.191 30.997,0.213 30.931,0.238L30.926,0.24L30.915,0.245L30.823,0.281L30.736,0.32L30.721,0.327L30.713,0.33C30.652,0.359 30.592,0.39 30.534,0.423L30.521,0.429L30.499,0.443L30.432,0.481L30.353,0.532L30.328,0.547L1.388,19.747L1.347,19.776L1.267,19.832L1.253,19.843L1.233,19.857L1.196,19.887L1.15,19.923L1.117,19.95L1.087,19.975L1.062,19.998L1.037,20.02L0.988,20.066L0.949,20.101L0.936,20.115L0.927,20.123L0.856,20.198L0.82,20.235L0.77,20.293L0.723,20.348L0.717,20.355L0.7,20.376L0.656,20.434L0.629,20.469L0.616,20.487L0.588,20.524L0.557,20.571L0.539,20.597L0.52,20.627L0.487,20.678L0.468,20.711L0.457,20.728L0.428,20.78L0.395,20.838L0.386,20.854C0.36,20.902 0.336,20.951 0.314,21L0.312,21.003L0.305,21.02L0.254,21.138L0.245,21.16L0.24,21.173L0.23,21.201L0.201,21.279L0.186,21.327L0.179,21.347L0.172,21.369L0.156,21.421L0.134,21.503L0.128,21.525L0.125,21.536C0.097,21.649 0.075,21.764 0.061,21.879L0.058,21.892L0.056,21.922L0.047,22L0.044,22.048L0.041,22.079L0.04,22.107L0.038,22.146L0.036,22.226L0.035,22.268L0.035,41.732L0.036,41.762L0.038,41.874L0.04,41.902L0.041,41.921L0.044,41.953L0.049,42.02L0.056,42.083L0.058,42.108L0.061,42.125C0.084,42.3 0.122,42.474 0.176,42.644L0.179,42.653L0.183,42.665L0.207,42.74L0.235,42.813L0.24,42.827L0.244,42.837L0.261,42.88L0.313,43C0.339,43.055 0.366,43.109 0.394,43.162L0.466,43.289L0.479,43.308L0.487,43.322L0.509,43.357L0.55,43.42L0.572,43.452L0.588,43.476L0.61,43.504L0.64,43.547L0.679,43.596L0.7,43.624L0.713,43.64L0.735,43.668L0.808,43.751L0.82,43.765L0.823,43.768C0.905,43.858 0.991,43.943 1.082,44.021L1.087,44.025L1.096,44.032L1.165,44.09L1.224,44.136L1.233,44.143L1.241,44.149C1.297,44.192 1.355,44.232 1.414,44.27L30.328,63.453L30.386,63.488L30.432,63.518L30.471,63.54L30.521,63.571L30.55,63.586C30.598,63.612 30.647,63.637 30.697,63.661L30.721,63.673L30.77,63.694L30.823,63.718L30.879,63.74L30.926,63.76L30.949,63.768C31.003,63.788 31.058,63.806 31.113,63.823L31.135,63.831L31.184,63.843L31.244,63.861L31.3,63.873L31.348,63.886L31.376,63.891C31.431,63.903 31.486,63.913 31.542,63.921L31.564,63.925L31.631,63.933L31.691,63.94L31.725,63.943L31.782,63.949L31.828,63.951L31.844,63.952L31.907,63.954L32,63.957L32.093,63.954L32.156,63.952L32.172,63.951L32.218,63.949L32.275,63.943L32.309,63.94L32.369,63.933L32.436,63.925L32.458,63.921C32.514,63.913 32.569,63.903 32.624,63.891L32.652,63.886L32.7,63.873L32.756,63.861L32.816,63.843L32.865,63.831L32.887,63.823C32.943,63.806 32.997,63.788 33.051,63.768L33.074,63.76L33.121,63.74L33.177,63.718L33.23,63.694L33.279,63.673L33.303,63.661C33.353,63.637 33.402,63.612 33.45,63.586L33.479,63.571L33.529,63.54L33.568,63.518L33.614,63.488L33.672,63.453L62.612,44.253L62.675,44.208L62.715,44.18L62.731,44.169L62.767,44.143L62.811,44.107L62.833,44.09L62.859,44.068L62.913,44.025L62.942,43.999L62.947,43.994L62.967,43.976C63.342,43.638 63.624,43.213 63.79,42.743L63.792,42.737C63.905,42.419 63.965,42.079 63.965,41.732L63.965,22.268L63.964,22.225L63.962,22.147L63.96,22.109L63.959,22.079L63.956,22.046L63.953,22.001L63.945,21.928L63.942,21.892L63.939,21.876C63.932,21.82 63.923,21.764 63.913,21.708L63.882,21.566L63.876,21.542L63.872,21.525L63.862,21.49L63.844,21.422L63.83,21.378L63.821,21.347L63.811,21.317L63.799,21.28L63.776,21.219L63.76,21.173L63.751,21.153L63.746,21.139L63.715,21.067L63.688,21.003L63.605,20.838L63.554,20.748L63.543,20.729L63.54,20.723L63.513,20.678L63.467,20.608L63.461,20.598L63.455,20.589L63.412,20.524L63.374,20.474L63.371,20.47L63.366,20.463C63.252,20.309 63.123,20.167 62.98,20.037L62.964,20.021L62.955,20.013L62.913,19.975L62.862,19.934L62.85,19.924L62.833,19.911C62.763,19.852 62.689,19.798 62.612,19.747L33.672,0.547L33.647,0.532L33.568,0.481L33.501,0.443L33.479,0.429L33.466,0.423C33.408,0.39 33.348,0.359 33.287,0.33L33.279,0.327L33.264,0.32L33.177,0.281L33.085,0.245L33.074,0.24L33.069,0.238C33.003,0.213 32.936,0.191 32.869,0.17L32.865,0.169L32.856,0.167L32.756,0.138L32.665,0.117L32.652,0.114L32.644,0.113C32.577,0.098 32.509,0.085 32.44,0.075L32.436,0.075L32.423,0.073L32.309,0.059L32.244,0.054L32.218,0.051L32.197,0.05L32.156,0.047L32,0.043ZM8.506,41.715L28.975,55.295L28.975,43.093L17.639,35.572L8.506,41.715ZM35.025,43.093L35.025,55.295L55.493,41.715L46.361,35.573L35.025,43.093ZM23.073,31.917L32,37.84L40.926,31.918L32,25.914L23.073,31.917ZM51.818,31.952L57.915,36.053L57.915,27.907L51.818,31.952ZM6.085,36.052L12.182,31.951L6.085,27.906L6.085,36.052ZM35.025,20.657L46.384,28.297L55.47,22.269L35.025,8.705L35.025,20.657ZM8.531,22.269L17.616,28.296L28.975,20.657L28.975,8.705L8.531,22.269Z"/>
    </g>

	<use href="#logo" fill="black" />
	<use href="#logo" fill="grey" mask="url(#myMask)" />

</svg>
